<svg xmlns="http://www.w3.org/2000/svg" xmlns:xlink="http://www.w3.org/1999/xlink" width="1920" zoomAndPan="magnify" viewBox="0 0 1440 809.999993" height="1080" preserveAspectRatio="xMidYMid meet" version="1.0"><defs><g/></defs><g fill="#3578ba" fill-opacity="1"><g transform="translate(612.726538, 424.171991)"><g><path d="M 3.71875 0 L 3.71875 -36.375 L 30.6875 -36.375 L 30.6875 -30.25 L 11.015625 -30.25 L 11.015625 -22.15625 L 29.328125 -22.15625 L 29.328125 -16 L 11.015625 -16 L 11.015625 -6.15625 L 31.359375 -6.15625 L 31.359375 0 Z M 3.71875 0 "/></g></g></g><g fill="#3578ba" fill-opacity="1"><g transform="translate(646.61026, 424.171991)"><g><path d="M 26.625 -18.5625 L 19.78125 -17.3125 C 19.53125 -18.675781 18.988281 -19.703125 18.15625 -20.390625 C 17.332031 -21.085938 16.273438 -21.4375 14.984375 -21.4375 C 13.265625 -21.4375 11.882812 -20.84375 10.84375 -19.65625 C 9.8125 -18.476562 9.296875 -16.484375 9.296875 -13.671875 C 9.296875 -10.515625 9.820312 -8.296875 10.875 -7.015625 C 11.925781 -5.734375 13.328125 -5.09375 15.078125 -5.09375 C 16.398438 -5.09375 17.488281 -5.472656 18.34375 -6.234375 C 19.195312 -6.992188 19.789062 -8.289062 20.125 -10.125 L 26.96875 -8.9375 C 25.53125 -2.5625 21.46875 0.625 14.78125 0.625 C 10.914062 0.625 7.84375 -0.59375 5.5625 -3.03125 C 3.28125 -5.476562 2.140625 -8.851562 2.140625 -13.15625 C 2.140625 -17.5 3.28125 -20.878906 5.5625 -23.296875 C 7.84375 -25.710938 10.953125 -26.921875 14.890625 -26.921875 C 18.109375 -26.921875 20.664062 -26.238281 22.5625 -24.875 C 24.457031 -23.507812 25.8125 -21.40625 26.625 -18.5625 Z M 26.625 -18.5625 "/></g></g></g><g fill="#3578ba" fill-opacity="1"><g transform="translate(674.863238, 424.171991)"><g><path d="M 2.03125 -13.578125 C 2.03125 -15.867188 2.597656 -18.097656 3.734375 -20.265625 C 4.867188 -22.429688 6.484375 -24.082031 8.578125 -25.21875 C 10.679688 -26.351562 13.023438 -26.921875 15.609375 -26.921875 C 19.585938 -26.921875 22.851562 -25.625 25.40625 -23.03125 C 27.957031 -20.445312 29.234375 -17.195312 29.234375 -13.28125 C 29.234375 -9.269531 27.941406 -5.945312 25.359375 -3.3125 C 22.773438 -0.6875 19.539062 0.625 15.65625 0.625 C 13.238281 0.625 10.929688 0.0703125 8.734375 -1.03125 C 6.535156 -2.144531 4.867188 -3.75 3.734375 -5.84375 C 2.597656 -7.9375 2.03125 -10.515625 2.03125 -13.578125 Z M 9.203125 -13.15625 C 9.203125 -10.550781 9.816406 -8.554688 11.046875 -7.171875 C 12.285156 -5.785156 13.820312 -5.09375 15.65625 -5.09375 C 17.4375 -5.09375 18.945312 -5.785156 20.1875 -7.171875 C 21.4375 -8.554688 22.0625 -10.566406 22.0625 -13.203125 C 22.0625 -15.773438 21.4375 -17.753906 20.1875 -19.140625 C 18.945312 -20.535156 17.4375 -21.234375 15.65625 -21.234375 C 13.820312 -21.234375 12.285156 -20.535156 11.046875 -19.140625 C 9.816406 -17.753906 9.203125 -15.757812 9.203125 -13.15625 Z M 9.203125 -13.15625 "/></g></g></g><g fill="#3578ba" fill-opacity="1"><g transform="translate(705.894384, 424.171991)"><g><path d="M 15.75 -26.375 L 15.75 -20.796875 L 10.96875 -20.796875 L 10.96875 -10.171875 C 10.96875 -8.035156 11.007812 -6.789062 11.09375 -6.4375 C 11.1875 -6.082031 11.394531 -5.785156 11.71875 -5.546875 C 12.039062 -5.304688 12.4375 -5.1875 12.90625 -5.1875 C 13.550781 -5.1875 14.484375 -5.410156 15.703125 -5.859375 L 16.296875 -0.453125 C 14.679688 0.265625 12.835938 0.625 10.765625 0.625 C 9.296875 0.625 8 0.328125 6.875 -0.265625 C 5.75 -0.867188 4.984375 -1.75 4.578125 -2.90625 C 4.171875 -4.0625 3.96875 -6.191406 3.96875 -9.296875 L 3.96875 -20.796875 L 0.765625 -20.796875 L 0.765625 -26.375 L 3.96875 -26.375 L 3.96875 -31.609375 L 10.96875 -35.671875 L 10.96875 -26.375 Z M 15.75 -26.375 "/></g></g></g><g fill="#3578ba" fill-opacity="1"><g transform="translate(722.81144, 424.171991)"><g><path d="M 2.03125 -13.578125 C 2.03125 -15.867188 2.597656 -18.097656 3.734375 -20.265625 C 4.867188 -22.429688 6.484375 -24.082031 8.578125 -25.21875 C 10.679688 -26.351562 13.023438 -26.921875 15.609375 -26.921875 C 19.585938 -26.921875 22.851562 -25.625 25.40625 -23.03125 C 27.957031 -20.445312 29.234375 -17.195312 29.234375 -13.28125 C 29.234375 -9.269531 27.941406 -5.945312 25.359375 -3.3125 C 22.773438 -0.6875 19.539062 0.625 15.65625 0.625 C 13.238281 0.625 10.929688 0.0703125 8.734375 -1.03125 C 6.535156 -2.144531 4.867188 -3.75 3.734375 -5.84375 C 2.597656 -7.9375 2.03125 -10.515625 2.03125 -13.578125 Z M 9.203125 -13.15625 C 9.203125 -10.550781 9.816406 -8.554688 11.046875 -7.171875 C 12.285156 -5.785156 13.820312 -5.09375 15.65625 -5.09375 C 17.4375 -5.09375 18.945312 -5.785156 20.1875 -7.171875 C 21.4375 -8.554688 22.0625 -10.566406 22.0625 -13.203125 C 22.0625 -15.773438 21.4375 -17.753906 20.1875 -19.140625 C 18.945312 -20.535156 17.4375 -21.234375 15.65625 -21.234375 C 13.820312 -21.234375 12.285156 -20.535156 11.046875 -19.140625 C 9.816406 -17.753906 9.203125 -15.757812 9.203125 -13.15625 Z M 9.203125 -13.15625 "/></g></g></g><g fill="#3578ba" fill-opacity="1"><g transform="translate(753.842586, 424.171991)"><g><path d="M 27.59375 0 L 20.625 0 L 20.625 -13.46875 C 20.625 -16.3125 20.484375 -18.144531 20.203125 -18.96875 C 19.921875 -19.800781 19.4375 -20.441406 18.75 -20.890625 C 18.070312 -21.347656 17.253906 -21.578125 16.296875 -21.578125 C 15.128906 -21.578125 14.0625 -21.25 13.09375 -20.59375 C 12.125 -19.945312 11.457031 -19.078125 11.09375 -17.984375 C 10.738281 -16.890625 10.5625 -14.875 10.5625 -11.9375 L 10.5625 0 L 3.59375 0 L 3.59375 -26.375 L 10.078125 -26.375 L 10.078125 -22.453125 C 12.367188 -25.429688 15.257812 -26.921875 18.75 -26.921875 C 20.3125 -26.921875 21.726562 -26.648438 23 -26.109375 C 24.269531 -25.578125 25.222656 -24.875 25.859375 -24 C 26.503906 -23.132812 26.953125 -22.148438 27.203125 -21.046875 C 27.460938 -19.953125 27.59375 -18.382812 27.59375 -16.34375 Z M 27.59375 0 "/></g></g></g><g fill="#3578ba" fill-opacity="1"><g transform="translate(784.873731, 424.171991)"><g><path d="M 3.640625 -29.921875 L 3.640625 -36.375 L 10.625 -36.375 L 10.625 -29.921875 Z M 3.640625 0 L 3.640625 -26.375 L 10.625 -26.375 L 10.625 0 Z M 3.640625 0 "/></g></g></g><g fill="#3578ba" fill-opacity="1"><g transform="translate(798.987821, 424.171991)"><g><path d="M 26.625 -18.5625 L 19.78125 -17.3125 C 19.53125 -18.675781 18.988281 -19.703125 18.15625 -20.390625 C 17.332031 -21.085938 16.273438 -21.4375 14.984375 -21.4375 C 13.265625 -21.4375 11.882812 -20.84375 10.84375 -19.65625 C 9.8125 -18.476562 9.296875 -16.484375 9.296875 -13.671875 C 9.296875 -10.515625 9.820312 -8.296875 10.875 -7.015625 C 11.925781 -5.734375 13.328125 -5.09375 15.078125 -5.09375 C 16.398438 -5.09375 17.488281 -5.472656 18.34375 -6.234375 C 19.195312 -6.992188 19.789062 -8.289062 20.125 -10.125 L 26.96875 -8.9375 C 25.53125 -2.5625 21.46875 0.625 14.78125 0.625 C 10.914062 0.625 7.84375 -0.59375 5.5625 -3.03125 C 3.28125 -5.476562 2.140625 -8.851562 2.140625 -13.15625 C 2.140625 -17.5 3.28125 -20.878906 5.5625 -23.296875 C 7.84375 -25.710938 10.953125 -26.921875 14.890625 -26.921875 C 18.109375 -26.921875 20.664062 -26.238281 22.5625 -24.875 C 24.457031 -23.507812 25.8125 -21.40625 26.625 -18.5625 Z M 26.625 -18.5625 "/></g></g></g></svg>